<svg xmlns="http://www.w3.org/2000/svg" xmlns:xlink="http://www.w3.org/1999/xlink" contentStyleType="text/css" data-diagram-type="CLASS" height="1049px" preserveAspectRatio="none" style="width:448px;height:1049px;background:#FFFFFF;" version="1.1" viewBox="0 0 448 1049" width="448px" zoomAndPan="magnify"><defs/><g><!--class Consulta--><g class="entity" data-entity="Consulta" data-source-line="1" data-uid="ent0002" id="entity_Consulta"><rect fill="#F1F1F1" height="64.2969" rx="2.5" ry="2.5" style="stroke:#181818;stroke-width:0.5;" width="93.3389" x="348" y="647"/><ellipse cx="363" cy="663" fill="#ADD1B2" rx="11" ry="11" style="stroke:#181818;stroke-width:1;"/><path d="M365.9688,668.6406 Q365.3906,668.9375 364.75,669.0781 Q364.1094,669.2344 363.4063,669.2344 Q360.9063,669.2344 359.5781,667.5938 Q358.2656,665.9375 358.2656,662.8125 Q358.2656,659.6875 359.5781,658.0313 Q360.9063,656.375 363.4063,656.375 Q364.1094,656.375 364.75,656.5313 Q365.4063,656.6875 365.9688,656.9844 L365.9688,659.7031 Q365.3438,659.125 364.75,658.8594 Q364.1563,658.5781 363.5313,658.5781 Q362.1875,658.5781 361.5,659.6563 Q360.8125,660.7188 360.8125,662.8125 Q360.8125,664.9063 361.5,665.9844 Q362.1875,667.0469 363.5313,667.0469 Q364.1563,667.0469 364.75,666.7813 Q365.3438,666.5 365.9688,665.9219 L365.9688,668.6406 Z " fill="#000000"/><text fill="#000000" font-family="sans-serif" font-size="14" lengthAdjust="spacing" textLength="61.3389" x="377" y="667.8467">Consulta</text><line style="stroke:#181818;stroke-width:0.5;" x1="349" x2="440.3389" y1="679" y2="679"/><rect fill="none" height="6" style="stroke:#C82930;stroke-width:1;" width="6" x="356" y="689.6484"/><text fill="#000000" font-family="sans-serif" font-size="14" lengthAdjust="spacing" textLength="26.8311" x="368" y="695.9951">tipo</text><line style="stroke:#181818;stroke-width:0.5;" x1="349" x2="440.3389" y1="703.2969" y2="703.2969"/></g><!--class Tabla--><g class="entity" data-entity="Tabla" data-source-line="5" data-uid="ent0003" id="entity_Tabla"><rect fill="#F1F1F1" height="80.5938" rx="2.5" ry="2.5" style="stroke:#181818;stroke-width:0.5;" width="93.4092" x="186" y="788"/><ellipse cx="211.3153" cy="804" fill="#ADD1B2" rx="11" ry="11" style="stroke:#181818;stroke-width:1;"/><path d="M214.284,809.6406 Q213.7059,809.9375 213.0653,810.0781 Q212.4247,810.2344 211.7215,810.2344 Q209.2215,810.2344 207.8934,808.5938 Q206.5809,806.9375 206.5809,803.8125 Q206.5809,800.6875 207.8934,799.0313 Q209.2215,797.375 211.7215,797.375 Q212.4247,797.375 213.0653,797.5313 Q213.7215,797.6875 214.284,797.9844 L214.284,800.7031 Q213.659,800.125 213.0653,799.8594 Q212.4715,799.5781 211.8465,799.5781 Q210.5028,799.5781 209.8153,800.6563 Q209.1278,801.7188 209.1278,803.8125 Q209.1278,805.9063 209.8153,806.9844 Q210.5028,808.0469 211.8465,808.0469 Q212.4715,808.0469 213.0653,807.7813 Q213.659,807.5 214.284,806.9219 L214.284,809.6406 Z " fill="#000000"/><text fill="#000000" font-family="sans-serif" font-size="14" lengthAdjust="spacing" textLength="38.4863" x="227.6076" y="808.8467">Tabla</text><line style="stroke:#181818;stroke-width:0.5;" x1="187" x2="278.4092" y1="820" y2="820"/><rect fill="none" height="6" style="stroke:#C82930;stroke-width:1;" width="6" x="194" y="830.6484"/><text fill="#000000" font-family="sans-serif" font-size="14" lengthAdjust="spacing" textLength="28.5811" x="206" y="836.9951">filas</text><rect fill="none" height="6" style="stroke:#C82930;stroke-width:1;" width="6" x="194" y="846.9453"/><text fill="#000000" font-family="sans-serif" font-size="14" lengthAdjust="spacing" textLength="67.4092" x="206" y="853.292">columnas</text><line style="stroke:#181818;stroke-width:0.5;" x1="187" x2="278.4092" y1="860.5938" y2="860.5938"/></g><!--class Campo--><g class="entity" data-entity="Campo" data-source-line="10" data-uid="ent0004" id="entity_Campo"><rect fill="#F1F1F1" height="96.8906" rx="2.5" ry="2.5" style="stroke:#181818;stroke-width:0.5;" width="90.4219" x="120.5" y="946"/><ellipse cx="139.5399" cy="962" fill="#ADD1B2" rx="11" ry="11" style="stroke:#181818;stroke-width:1;"/><path d="M142.5086,967.6406 Q141.9305,967.9375 141.2899,968.0781 Q140.6493,968.2344 139.9461,968.2344 Q137.4461,968.2344 136.118,966.5938 Q134.8055,964.9375 134.8055,961.8125 Q134.8055,958.6875 136.118,957.0313 Q137.4461,955.375 139.9461,955.375 Q140.6493,955.375 141.2899,955.5313 Q141.9461,955.6875 142.5086,955.9844 L142.5086,958.7031 Q141.8836,958.125 141.2899,957.8594 Q140.6961,957.5781 140.0711,957.5781 Q138.7274,957.5781 138.0399,958.6563 Q137.3524,959.7188 137.3524,961.8125 Q137.3524,963.9063 138.0399,964.9844 Q138.7274,966.0469 140.0711,966.0469 Q140.6961,966.0469 141.2899,965.7813 Q141.8836,965.5 142.5086,964.9219 L142.5086,967.6406 Z " fill="#000000"/><text fill="#000000" font-family="sans-serif" font-size="14" lengthAdjust="spacing" textLength="49.4443" x="154.4376" y="966.8467">Campo</text><line style="stroke:#181818;stroke-width:0.5;" x1="121.5" x2="209.9219" y1="978" y2="978"/><rect fill="none" height="6" style="stroke:#C82930;stroke-width:1;" width="6" x="128.5" y="988.6484"/><text fill="#000000" font-family="sans-serif" font-size="14" lengthAdjust="spacing" textLength="38.5479" x="140.5" y="994.9951">index</text><rect fill="none" height="6" style="stroke:#C82930;stroke-width:1;" width="6" x="128.5" y="1004.9453"/><text fill="#000000" font-family="sans-serif" font-size="14" lengthAdjust="spacing" textLength="64.4219" x="140.5" y="1011.292">cabecera</text><rect fill="none" height="6" style="stroke:#C82930;stroke-width:1;" width="6" x="128.5" y="1021.2422"/><text fill="#000000" font-family="sans-serif" font-size="14" lengthAdjust="spacing" textLength="54.332" x="140.5" y="1027.5889">nombre</text><line style="stroke:#181818;stroke-width:0.5;" x1="121.5" x2="209.9219" y1="1034.8906" y2="1034.8906"/></g><!--class Esquema--><g class="entity" data-entity="Esquema" data-source-line="16" data-uid="ent0005" id="entity_Esquema"><rect fill="#F1F1F1" height="64.2969" rx="2.5" ry="2.5" style="stroke:#181818;stroke-width:0.5;" width="96.7295" x="326" y="475"/><ellipse cx="341" cy="491" fill="#ADD1B2" rx="11" ry="11" style="stroke:#181818;stroke-width:1;"/><path d="M343.9688,496.6406 Q343.3906,496.9375 342.75,497.0781 Q342.1094,497.2344 341.4063,497.2344 Q338.9063,497.2344 337.5781,495.5938 Q336.2656,493.9375 336.2656,490.8125 Q336.2656,487.6875 337.5781,486.0313 Q338.9063,484.375 341.4063,484.375 Q342.1094,484.375 342.75,484.5313 Q343.4063,484.6875 343.9688,484.9844 L343.9688,487.7031 Q343.3438,487.125 342.75,486.8594 Q342.1563,486.5781 341.5313,486.5781 Q340.1875,486.5781 339.5,487.6563 Q338.8125,488.7188 338.8125,490.8125 Q338.8125,492.9063 339.5,493.9844 Q340.1875,495.0469 341.5313,495.0469 Q342.1563,495.0469 342.75,494.7813 Q343.3438,494.5 343.9688,493.9219 L343.9688,496.6406 Z " fill="#000000"/><text fill="#000000" font-family="sans-serif" font-size="14" lengthAdjust="spacing" textLength="64.7295" x="355" y="495.8467">Esquema</text><line style="stroke:#181818;stroke-width:0.5;" x1="327" x2="421.7295" y1="507" y2="507"/><rect fill="none" height="6" style="stroke:#C82930;stroke-width:1;" width="6" x="334" y="517.6484"/><text fill="#000000" font-family="sans-serif" font-size="14" lengthAdjust="spacing" textLength="58.2217" x="346" y="523.9951">Registro</text><line style="stroke:#181818;stroke-width:0.5;" x1="327" x2="421.7295" y1="531.2969" y2="531.2969"/></g><!--class BaseDeDato--><g class="entity" data-entity="BaseDeDato" data-source-line="21" data-uid="ent0006" id="entity_BaseDeDato"><rect fill="#F1F1F1" height="48" rx="2.5" ry="2.5" style="stroke:#181818;stroke-width:0.5;" width="118.8984" x="189" y="350"/><ellipse cx="204" cy="366" fill="#ADD1B2" rx="11" ry="11" style="stroke:#181818;stroke-width:1;"/><path d="M206.9688,371.6406 Q206.3906,371.9375 205.75,372.0781 Q205.1094,372.2344 204.4063,372.2344 Q201.9063,372.2344 200.5781,370.5938 Q199.2656,368.9375 199.2656,365.8125 Q199.2656,362.6875 200.5781,361.0313 Q201.9063,359.375 204.4063,359.375 Q205.1094,359.375 205.75,359.5313 Q206.4063,359.6875 206.9688,359.9844 L206.9688,362.7031 Q206.3438,362.125 205.75,361.8594 Q205.1563,361.5781 204.5313,361.5781 Q203.1875,361.5781 202.5,362.6563 Q201.8125,363.7188 201.8125,365.8125 Q201.8125,367.9063 202.5,368.9844 Q203.1875,370.0469 204.5313,370.0469 Q205.1563,370.0469 205.75,369.7813 Q206.3438,369.5 206.9688,368.9219 L206.9688,371.6406 Z " fill="#000000"/><text fill="#000000" font-family="sans-serif" font-size="14" lengthAdjust="spacing" textLength="86.8984" x="218" y="370.8467">BaseDeDato</text><line style="stroke:#181818;stroke-width:0.5;" x1="190" x2="306.8984" y1="382" y2="382"/><line style="stroke:#181818;stroke-width:0.5;" x1="190" x2="306.8984" y1="390" y2="390"/></g><!--class Usuario--><g class="entity" data-entity="Usuario" data-source-line="22" data-uid="ent0008" id="entity_Usuario"><rect fill="#F1F1F1" height="48" rx="2.5" ry="2.5" style="stroke:#181818;stroke-width:0.5;" width="85.2041" x="206" y="7"/><ellipse cx="221" cy="23" fill="#ADD1B2" rx="11" ry="11" style="stroke:#181818;stroke-width:1;"/><path d="M223.9688,28.6406 Q223.3906,28.9375 222.75,29.0781 Q222.1094,29.2344 221.4063,29.2344 Q218.9063,29.2344 217.5781,27.5938 Q216.2656,25.9375 216.2656,22.8125 Q216.2656,19.6875 217.5781,18.0313 Q218.9063,16.375 221.4063,16.375 Q222.1094,16.375 222.75,16.5313 Q223.4063,16.6875 223.9688,16.9844 L223.9688,19.7031 Q223.3438,19.125 222.75,18.8594 Q222.1563,18.5781 221.5313,18.5781 Q220.1875,18.5781 219.5,19.6563 Q218.8125,20.7188 218.8125,22.8125 Q218.8125,24.9063 219.5,25.9844 Q220.1875,27.0469 221.5313,27.0469 Q222.1563,27.0469 222.75,26.7813 Q223.3438,26.5 223.9688,25.9219 L223.9688,28.6406 Z " fill="#000000"/><text fill="#000000" font-family="sans-serif" font-size="14" lengthAdjust="spacing" textLength="53.2041" x="235" y="27.8467">Usuario</text><line style="stroke:#181818;stroke-width:0.5;" x1="207" x2="290.2041" y1="39" y2="39"/><line style="stroke:#181818;stroke-width:0.5;" x1="207" x2="290.2041" y1="47" y2="47"/></g><!--class Rol--><g class="entity" data-entity="Rol" data-source-line="22" data-uid="ent0009" id="entity_Rol"><rect fill="#F1F1F1" height="48" rx="2.5" ry="2.5" style="stroke:#181818;stroke-width:0.5;" width="54.1826" x="319.5" y="116"/><ellipse cx="334.5" cy="132" fill="#ADD1B2" rx="11" ry="11" style="stroke:#181818;stroke-width:1;"/><path d="M337.4688,137.6406 Q336.8906,137.9375 336.25,138.0781 Q335.6094,138.2344 334.9063,138.2344 Q332.4063,138.2344 331.0781,136.5938 Q329.7656,134.9375 329.7656,131.8125 Q329.7656,128.6875 331.0781,127.0313 Q332.4063,125.375 334.9063,125.375 Q335.6094,125.375 336.25,125.5313 Q336.9063,125.6875 337.4688,125.9844 L337.4688,128.7031 Q336.8438,128.125 336.25,127.8594 Q335.6563,127.5781 335.0313,127.5781 Q333.6875,127.5781 333,128.6563 Q332.3125,129.7188 332.3125,131.8125 Q332.3125,133.9063 333,134.9844 Q333.6875,136.0469 335.0313,136.0469 Q335.6563,136.0469 336.25,135.7813 Q336.8438,135.5 337.4688,134.9219 L337.4688,137.6406 Z " fill="#000000"/><text fill="#000000" font-family="sans-serif" font-size="14" lengthAdjust="spacing" textLength="22.1826" x="348.5" y="136.8467">Rol</text><line style="stroke:#181818;stroke-width:0.5;" x1="320.5" x2="372.6826" y1="148" y2="148"/><line style="stroke:#181818;stroke-width:0.5;" x1="320.5" x2="372.6826" y1="156" y2="156"/></g><!--class Permision--><g class="entity" data-entity="Permision" data-source-line="23" data-uid="ent0011" id="entity_Permision"><rect fill="#F1F1F1" height="48" rx="2.5" ry="2.5" style="stroke:#181818;stroke-width:0.5;" width="100.9609" x="198" y="225"/><ellipse cx="213" cy="241" fill="#ADD1B2" rx="11" ry="11" style="stroke:#181818;stroke-width:1;"/><path d="M215.9688,246.6406 Q215.3906,246.9375 214.75,247.0781 Q214.1094,247.2344 213.4063,247.2344 Q210.9063,247.2344 209.5781,245.5938 Q208.2656,243.9375 208.2656,240.8125 Q208.2656,237.6875 209.5781,236.0313 Q210.9063,234.375 213.4063,234.375 Q214.1094,234.375 214.75,234.5313 Q215.4063,234.6875 215.9688,234.9844 L215.9688,237.7031 Q215.3438,237.125 214.75,236.8594 Q214.1563,236.5781 213.5313,236.5781 Q212.1875,236.5781 211.5,237.6563 Q210.8125,238.7188 210.8125,240.8125 Q210.8125,242.9063 211.5,243.9844 Q212.1875,245.0469 213.5313,245.0469 Q214.1563,245.0469 214.75,244.7813 Q215.3438,244.5 215.9688,243.9219 L215.9688,246.6406 Z " fill="#000000"/><text fill="#000000" font-family="sans-serif" font-size="14" lengthAdjust="spacing" textLength="68.9609" x="227" y="245.8467">Permision</text><line style="stroke:#181818;stroke-width:0.5;" x1="199" x2="297.9609" y1="257" y2="257"/><line style="stroke:#181818;stroke-width:0.5;" x1="199" x2="297.9609" y1="265" y2="265"/></g><!--class ForeingKey--><g class="entity" data-entity="ForeingKey" data-source-line="28" data-uid="ent0017" id="entity_ForeingKey"><rect fill="#F1F1F1" height="48" rx="2.5" ry="2.5" style="stroke:#181818;stroke-width:0.5;" width="110.7158" x="27" y="483"/><ellipse cx="42" cy="499" fill="#ADD1B2" rx="11" ry="11" style="stroke:#181818;stroke-width:1;"/><path d="M44.9688,504.6406 Q44.3906,504.9375 43.75,505.0781 Q43.1094,505.2344 42.4063,505.2344 Q39.9063,505.2344 38.5781,503.5938 Q37.2656,501.9375 37.2656,498.8125 Q37.2656,495.6875 38.5781,494.0313 Q39.9063,492.375 42.4063,492.375 Q43.1094,492.375 43.75,492.5313 Q44.4063,492.6875 44.9688,492.9844 L44.9688,495.7031 Q44.3438,495.125 43.75,494.8594 Q43.1563,494.5781 42.5313,494.5781 Q41.1875,494.5781 40.5,495.6563 Q39.8125,496.7188 39.8125,498.8125 Q39.8125,500.9063 40.5,501.9844 Q41.1875,503.0469 42.5313,503.0469 Q43.1563,503.0469 43.75,502.7813 Q44.3438,502.5 44.9688,501.9219 L44.9688,504.6406 Z " fill="#000000"/><text fill="#000000" font-family="sans-serif" font-size="14" lengthAdjust="spacing" textLength="78.7158" x="56" y="503.8467">ForeingKey</text><line style="stroke:#181818;stroke-width:0.5;" x1="28" x2="136.7158" y1="515" y2="515"/><line style="stroke:#181818;stroke-width:0.5;" x1="28" x2="136.7158" y1="523" y2="523"/></g><!--class PrimaryKey--><g class="entity" data-entity="PrimaryKey" data-source-line="29" data-uid="ent0019" id="entity_PrimaryKey"><rect fill="#F1F1F1" height="48" rx="2.5" ry="2.5" style="stroke:#181818;stroke-width:0.5;" width="112.4248" x="181.5" y="569"/><ellipse cx="196.5" cy="585" fill="#ADD1B2" rx="11" ry="11" style="stroke:#181818;stroke-width:1;"/><path d="M199.4688,590.6406 Q198.8906,590.9375 198.25,591.0781 Q197.6094,591.2344 196.9063,591.2344 Q194.4063,591.2344 193.0781,589.5938 Q191.7656,587.9375 191.7656,584.8125 Q191.7656,581.6875 193.0781,580.0313 Q194.4063,578.375 196.9063,578.375 Q197.6094,578.375 198.25,578.5313 Q198.9063,578.6875 199.4688,578.9844 L199.4688,581.7031 Q198.8438,581.125 198.25,580.8594 Q197.6563,580.5781 197.0313,580.5781 Q195.6875,580.5781 195,581.6563 Q194.3125,582.7188 194.3125,584.8125 Q194.3125,586.9063 195,587.9844 Q195.6875,589.0469 197.0313,589.0469 Q197.6563,589.0469 198.25,588.7813 Q198.8438,588.5 199.4688,587.9219 L199.4688,590.6406 Z " fill="#000000"/><text fill="#000000" font-family="sans-serif" font-size="14" lengthAdjust="spacing" textLength="80.4248" x="210.5" y="589.8467">PrimaryKey</text><line style="stroke:#181818;stroke-width:0.5;" x1="182.5" x2="292.9248" y1="601" y2="601"/><line style="stroke:#181818;stroke-width:0.5;" x1="182.5" x2="292.9248" y1="609" y2="609"/></g><!--class PrimaryKeyKey--><g class="entity" data-entity="PrimaryKeyKey" data-source-line="30" data-uid="ent0021" id="entity_PrimaryKeyKey"><rect fill="#F1F1F1" height="48" rx="2.5" ry="2.5" style="stroke:#181818;stroke-width:0.5;" width="138.5039" x="7" y="350"/><ellipse cx="22" cy="366" fill="#ADD1B2" rx="11" ry="11" style="stroke:#181818;stroke-width:1;"/><path d="M24.9688,371.6406 Q24.3906,371.9375 23.75,372.0781 Q23.1094,372.2344 22.4063,372.2344 Q19.9063,372.2344 18.5781,370.5938 Q17.2656,368.9375 17.2656,365.8125 Q17.2656,362.6875 18.5781,361.0313 Q19.9063,359.375 22.4063,359.375 Q23.1094,359.375 23.75,359.5313 Q24.4063,359.6875 24.9688,359.9844 L24.9688,362.7031 Q24.3438,362.125 23.75,361.8594 Q23.1563,361.5781 22.5313,361.5781 Q21.1875,361.5781 20.5,362.6563 Q19.8125,363.7188 19.8125,365.8125 Q19.8125,367.9063 20.5,368.9844 Q21.1875,370.0469 22.5313,370.0469 Q23.1563,370.0469 23.75,369.7813 Q24.3438,369.5 24.9688,368.9219 L24.9688,371.6406 Z " fill="#000000"/><text fill="#000000" font-family="sans-serif" font-size="14" lengthAdjust="spacing" textLength="106.5039" x="36" y="370.8467">PrimaryKeyKey</text><line style="stroke:#181818;stroke-width:0.5;" x1="8" x2="144.5039" y1="382" y2="382"/><line style="stroke:#181818;stroke-width:0.5;" x1="8" x2="144.5039" y1="390" y2="390"/></g><!--class Relaciones--><g class="entity" data-entity="Relaciones" data-source-line="33" data-uid="ent0025" id="entity_Relaciones"><rect fill="#F1F1F1" height="48" rx="2.5" ry="2.5" style="stroke:#181818;stroke-width:0.5;" width="107.7422" x="245.5" y="970.5"/><ellipse cx="260.5" cy="986.5" fill="#ADD1B2" rx="11" ry="11" style="stroke:#181818;stroke-width:1;"/><path d="M263.4688,992.1406 Q262.8906,992.4375 262.25,992.5781 Q261.6094,992.7344 260.9063,992.7344 Q258.4063,992.7344 257.0781,991.0938 Q255.7656,989.4375 255.7656,986.3125 Q255.7656,983.1875 257.0781,981.5313 Q258.4063,979.875 260.9063,979.875 Q261.6094,979.875 262.25,980.0313 Q262.9063,980.1875 263.4688,980.4844 L263.4688,983.2031 Q262.8438,982.625 262.25,982.3594 Q261.6563,982.0781 261.0313,982.0781 Q259.6875,982.0781 259,983.1563 Q258.3125,984.2188 258.3125,986.3125 Q258.3125,988.4063 259,989.4844 Q259.6875,990.5469 261.0313,990.5469 Q261.6563,990.5469 262.25,990.2813 Q262.8438,990 263.4688,989.4219 L263.4688,992.1406 Z " fill="#000000"/><text fill="#000000" font-family="sans-serif" font-size="14" lengthAdjust="spacing" textLength="75.7422" x="274.5" y="991.3467">Relaciones</text><line style="stroke:#181818;stroke-width:0.5;" x1="246.5" x2="352.2422" y1="1002.5" y2="1002.5"/><line style="stroke:#181818;stroke-width:0.5;" x1="246.5" x2="352.2422" y1="1010.5" y2="1010.5"/></g><!--link BaseDeDato to Esquema--><g class="link" data-entity-1="BaseDeDato" data-entity-2="Esquema" data-source-line="21" data-uid="lnk7" id="link_BaseDeDato_Esquema"><path codeLine="21" d="M270.74,398.12 C291.22,419.42 317.6308,446.8756 340.2908,470.4356" fill="none" id="BaseDeDato-to-Esquema" style="stroke:#181818;stroke-width:1;"/><polygon fill="#181818" points="344.45,474.76,341.0941,465.5005,340.984,471.1563,335.3282,471.0462,344.45,474.76" style="stroke:#181818;stroke-width:1;"/><text fill="#000000" font-family="sans-serif" font-size="13" lengthAdjust="spacing" textLength="32.9443" x="315.5" y="441.0669">tiene</text></g><!--link Usuario to Rol--><g class="link" data-entity-1="Usuario" data-entity-2="Rol" data-source-line="22" data-uid="lnk10" id="link_Usuario_Rol"><path codeLine="22" d="M269.76,55.22 C286.2,73.16 300.7453,89.0405 317.1753,106.9805" fill="none" id="Usuario-to-Rol" style="stroke:#181818;stroke-width:1;"/><polygon fill="#181818" points="325.28,115.83,324.1775,108.7037,317.1753,106.9805,318.2778,114.1068,325.28,115.83" style="stroke:#181818;stroke-width:1;"/></g><!--link Rol to Permision--><g class="link" data-entity-1="Rol" data-entity-2="Permision" data-source-line="23" data-uid="lnk12" id="link_Rol_Permision"><path codeLine="23" d="M325.24,164.22 C308.8,182.16 294.2547,198.0405 277.8247,215.9805" fill="none" id="Rol-to-Permision" style="stroke:#181818;stroke-width:1;"/><polygon fill="none" points="269.72,224.83,276.7222,223.1068,277.8247,215.9805,270.8225,217.7037,269.72,224.83" style="stroke:#181818;stroke-width:1;"/></g><!--link Usuario to Permision--><g class="link" data-entity-1="Usuario" data-entity-2="Permision" data-source-line="24" data-uid="lnk13" id="link_Usuario_Permision"><path codeLine="24" d="M247.8,55.17 C247.33,72.04 246.74,95.43 246.5,116 C246.25,137.33 246.25,142.67 246.5,164 C246.74,184.57 246.9958,195.9647 247.4658,212.8347" fill="none" id="Usuario-to-Permision" style="stroke:#181818;stroke-width:1;"/><polygon fill="#181818" points="247.8,224.83,251.6314,218.7209,247.4658,212.8347,243.6345,218.9437,247.8,224.83" style="stroke:#181818;stroke-width:1;"/><text fill="#000000" font-family="sans-serif" font-size="13" lengthAdjust="spacing" textLength="54.8311" x="247.5" y="144.5669">necesita</text></g><!--link Permision to BaseDeDato--><g class="link" data-entity-1="Permision" data-entity-2="BaseDeDato" data-source-line="25" data-uid="lnk14" id="link_Permision_BaseDeDato"><path codeLine="25" d="M248.5,273.14 C248.5,295.13 248.5,322.01 248.5,343.97" fill="none" id="Permision-to-BaseDeDato" style="stroke:#181818;stroke-width:1;"/><polygon fill="#181818" points="248.5,349.97,252.5,340.97,248.5,344.97,244.5,340.97,248.5,349.97" style="stroke:#181818;stroke-width:1;"/><text fill="#000000" font-family="sans-serif" font-size="13" lengthAdjust="spacing" textLength="58.6079" x="249.5" y="316.0669">accede a</text></g><!--link Esquema to Consulta--><g class="link" data-entity-1="Esquema" data-entity-2="Consulta" data-source-line="26" data-uid="lnk15" id="link_Esquema_Consulta"><path codeLine="26" d="M378.17,539.18 C381.77,569.76 385.8184,604.2021 389.4184,634.8121" fill="none" id="Esquema-to-Consulta" style="stroke:#181818;stroke-width:1;"/><polygon fill="none" points="390.82,646.73,394.0918,640.3039,389.4184,634.8121,386.1466,641.2383,390.82,646.73" style="stroke:#181818;stroke-width:1;"/></g><!--link Consulta to Tabla--><g class="link" data-entity-1="Consulta" data-entity-2="Tabla" data-source-line="27" data-uid="lnk16" id="link_Consulta_Tabla"><path codeLine="27" d="M360.14,711.28 C335.62,733.61 311.3229,755.7309 284.9429,779.7509" fill="none" id="Consulta-to-Tabla" style="stroke:#181818;stroke-width:1;"/><polygon fill="#181818" points="276.07,787.83,283.1995,786.7481,284.9429,779.7509,277.8134,780.8328,276.07,787.83" style="stroke:#181818;stroke-width:1;"/><text fill="#000000" font-family="sans-serif" font-size="13" lengthAdjust="spacing" textLength="32.9443" x="323.5" y="754.0669">tiene</text></g><!--link BaseDeDato to ForeingKey--><g class="link" data-entity-1="BaseDeDato" data-entity-2="ForeingKey" data-source-line="28" data-uid="lnk18" id="link_BaseDeDato_ForeingKey"><path codeLine="28" d="M230.76,398.08 C218.91,412.59 202.45,431.12 185.5,445 C167.98,459.36 146.7,472.54 128.05,482.96" fill="none" id="BaseDeDato-ForeingKey" style="stroke:#181818;stroke-width:1;"/></g><!--link BaseDeDato to PrimaryKey--><g class="link" data-entity-1="BaseDeDato" data-entity-2="PrimaryKey" data-source-line="29" data-uid="lnk20" id="link_BaseDeDato_PrimaryKey"><path codeLine="29" d="M247.32,398.22 C245.21,439.99 241.0836,521.3077 238.9736,562.9477" fill="none" id="BaseDeDato-to-PrimaryKey" style="stroke:#181818;stroke-width:1;"/><polygon fill="#181818" points="238.67,568.94,243.1203,560.154,238.923,563.9464,235.1306,559.7491,238.67,568.94" style="stroke:#181818;stroke-width:1;"/></g><!--link PrimaryKeyKey to ForeingKey--><g class="link" data-entity-1="PrimaryKeyKey" data-entity-2="ForeingKey" data-source-line="30" data-uid="lnk22" id="link_PrimaryKeyKey_ForeingKey"><path codeLine="30" d="M74.1756,410.1881 C73.6156,419.4481 73.78,418.23 73.5,428 C73.29,435.55 72.95,437.46 73.5,445 C74.42,457.6 74.4642,459.6988 76.3342,471.0788" fill="none" id="PrimaryKeyKey-ForeingKey" style="stroke:#181818;stroke-width:1;"/><polygon fill="#181818" points="74.9,398.21,70.5451,403.9576,74.1756,410.1881,78.5305,404.4405,74.9,398.21" style="stroke:#181818;stroke-width:1;"/><polygon fill="#181818" points="78.28,482.92,81.2542,476.3508,76.3342,471.0788,73.36,477.648,78.28,482.92" style="stroke:#181818;stroke-width:1;"/><text fill="#000000" font-family="sans-serif" font-size="13" lengthAdjust="spacing" textLength="106.2153" x="74.5" y="441.0669">se relaciona con</text></g><!--reverse link ForeingKey to Tabla--><g class="link" data-entity-1="ForeingKey" data-entity-2="Tabla" data-source-line="31" data-uid="lnk23" id="link_ForeingKey_Tabla"><path codeLine="31" d="M89.984,542.8696 C98.654,581.5596 116.24,649.47 147.5,711 C161.39,738.34 181.45,766.19 198.6,787.81" fill="none" id="ForeingKey-backto-Tabla" style="stroke:#181818;stroke-width:1;"/><polygon fill="none" points="87.36,531.16,84.7688,537.8895,89.984,542.8696,92.5752,536.1401,87.36,531.16" style="stroke:#181818;stroke-width:1;"/><text fill="#000000" font-family="sans-serif" font-size="13" lengthAdjust="spacing" textLength="78.1714" x="148.5" y="683.5669">pertenece a</text></g><!--reverse link PrimaryKey to Tabla--><g class="link" data-entity-1="PrimaryKey" data-entity-2="Tabla" data-source-line="32" data-uid="lnk24" id="link_PrimaryKey_Tabla"><path codeLine="32" d="M236.7438,629.2373 C235.8938,669.0373 234.4,738.67 233.35,787.69" fill="none" id="PrimaryKey-backto-Tabla" style="stroke:#181818;stroke-width:1;"/><polygon fill="none" points="237,617.24,232.8728,623.1532,236.7438,629.2373,240.871,623.324,237,617.24" style="stroke:#181818;stroke-width:1;"/><text fill="#000000" font-family="sans-serif" font-size="13" lengthAdjust="spacing" textLength="78.1714" x="237.5" y="683.5669">pertenece a</text></g><!--link Tabla to Relaciones--><g class="link" data-entity-1="Tabla" data-entity-2="Relaciones" data-source-line="33" data-uid="lnk26" id="link_Tabla_Relaciones"><path codeLine="33" d="M248.72,869.2 C261.65,900.86 274.7832,933.0007 285.5032,959.2507" fill="none" id="Tabla-to-Relaciones" style="stroke:#181818;stroke-width:1;"/><polygon fill="none" points="290.04,970.36,291.4747,963.2931,285.5032,959.2507,284.0685,966.3176,290.04,970.36" style="stroke:#181818;stroke-width:1;"/></g><!--link Tabla to Campo--><g class="link" data-entity-1="Tabla" data-entity-2="Campo" data-source-line="34" data-uid="lnk27" id="link_Tabla_Campo"><path codeLine="34" d="M216.28,869.2 C206.83,892.33 199.3976,910.531 189.4476,934.891" fill="none" id="Tabla-to-Campo" style="stroke:#181818;stroke-width:1;"/><polygon fill="#181818" points="184.91,946,190.8818,941.958,189.4476,934.891,183.4758,938.933,184.91,946" style="stroke:#181818;stroke-width:1;"/><text fill="#000000" font-family="sans-serif" font-size="13" lengthAdjust="spacing" textLength="32.9443" x="204.5" y="912.0669">tiene</text></g><!--SRC=[TL7BJiGm3BpxAtn3gfGVw843kt3XighW0zpKh2BbKU9KOeNuTvAchqNY4lancHdRsf88deANoIRw1aI5oOm1VW3qt7kZtXBMpeV9fJdImKxEvsJ3dSYDeSAC7_YhmgXdpP7cn0VNHzv_FCldn6uHxVXg9CLP69v8-CndIW6LUbo1s6Phx1dXNIQAfZGRx895A8zI0IySdH4J_1ragsBhinqnYM2l5OM3O4jQyy18iCeMudL325jKcEjo5b_tjl4bH3R- -iet_3lG9Hf7yPPRi8S5s1JImySMXJ6o9PsTKjwwXqCtP9NLmSWnSPak6zyv_uNKMfciMzXPjc9JZxdDXG0F7KizK74qaX3ImBxaULTSD_KB]--></g></svg>